<svg xmlns="http://www.w3.org/2000/svg" viewBox="0 0 24 24" role="img" aria-labelledby="title desc">
  <title id="title">Google</title>
  <desc id="desc">Google G logo</desc>
  <path fill="#4285F4" d="M23.49 12.27c0-.79-.07-1.55-.2-2.27H12v4.51h6.44a5.5 5.5 0 0 1-2.39 3.61v2.99h3.86c2.26-2.08 3.58-5.15 3.58-8.84z"/>
  <path fill="#34A853" d="M12 24c3.24 0 5.95-1.07 7.94-2.9l-3.86-2.99c-1.07.72-2.44 1.15-4.08 1.15-3.14 0-5.8-2.12-6.75-4.97H1.27v3.12A11.99 11.99 0 0 0 12 24z"/>
  <path fill="#FBBC05" d="M5.25 14.29A7.2 7.2 0 0 1 4.89 12c0-.79.13-1.56.36-2.29V6.59H1.27A11.99 11.99 0 0 0 0 12c0 1.93.46 3.76 1.27 5.41l3.98-3.12z"/>
  <path fill="#EA4335" d="M12 4.75c1.76 0 3.34.61 4.58 1.8l3.44-3.44C17.95 1.17 15.24 0 12 0 7.31 0 3.27 2.69 1.27 6.59l3.98 3.12c.95-2.85 3.61-4.96 6.75-4.96z"/>
</svg>
